<svg xmlns="http://www.w3.org/2000/svg" viewBox="0 0 519 155">
  <title>FME Athlete Program</title>
  <g fill="currentColor">
    <path fill-rule="evenodd" d="M239.3957 115.2418C241.7297 115.2418 243.7207 117.1208 243.7207 119.5678L243.7207 139.3148C243.7207 141.5908 241.7297 143.6398 239.3957 143.6398L225.7947 143.6398 225.7947 153.6558 215.8927 153.6558 215.8927 115.2418 239.3957 115.2418zM326.9208 115.2421C329.5958 115.2421 331.4168 117.0631 331.4168 119.7381L331.4168 149.1601C331.4168 151.8351 329.5958 153.6561 326.9208 153.6561L307.1738 153.6561C304.4988 153.6561 302.6778 151.8351 302.6778 149.1601L302.6778 119.7381C302.6778 117.0631 304.4988 115.2421 307.1738 115.2421L326.9208 115.2421zM375.5778 115.2418L375.5778 123.4938 357.7658 123.4938C357.4808 123.4938 357.1968 123.7788 357.1968 124.1198L357.1968 144.7208C357.1968 145.0628 357.4808 145.2898 357.7658 145.2898L365.7328 145.2898C366.1318 145.2898 366.3598 145.0628 366.3598 144.7208L366.3598 138.2328 361.1808 138.2328 361.1808 130.0958 378.5948 130.0958 378.5948 138.2328 375.4068 138.2328 375.4068 149.2738C375.4068 151.7778 373.4728 153.6558 371.0258 153.6558L351.7908 153.6558C349.3438 153.6558 347.3518 151.7778 347.3518 149.2738L347.3518 119.5678C347.3518 117.2338 349.3438 115.2418 351.7908 115.2418L375.5778 115.2418zM492.2402 115.2426L499.9792 133.1686 507.0932 115.2426 517.5652 115.2426 517.5652 153.6556 508.2322 153.6556 508.2322 131.5186 501.7442 146.7696 497.8742 146.7696 491.3302 131.9166 491.3302 153.6556 482.2252 153.6556 482.2252 115.2426 492.2402 115.2426zM282.817 115.2423C285.15 115.2423 287.142 117.1203 287.142 119.5673L287.142 137.1523C287.142 139.4853 285.15 141.4773 282.817 141.4773L282.532 141.4773 287.256 153.6553 277.581 153.6553 272.801 141.4773 268.59 141.4773 268.59 153.6553 258.689 153.6553 258.689 115.2423 282.817 115.2423zM417.5763 115.2423C419.9093 115.2423 421.9013 117.1203 421.9013 119.5673L421.9013 137.1523C421.9013 139.4853 419.9093 141.4773 417.5763 141.4773L417.2913 141.4773 422.0153 153.6553 412.3403 153.6553 407.5603 141.4773 403.3493 141.4773 403.3493 153.6553 393.4483 153.6553 393.4483 115.2423 417.5763 115.2423zM461.4525 115.2422C464.1275 115.2422 465.9485 117.0632 465.9485 119.7382L465.9485 153.6552 456.0465 153.6552 456.0465 144.0952 447.3385 144.0952 447.3385 153.6552 437.4375 153.6552 437.4375 119.7382C437.4375 117.0632 439.2585 115.2422 441.9325 115.2422L461.4525 115.2422zM320.8878 123.5511L313.0918 123.5511C312.8638 123.5511 312.5798 123.8351 312.5798 124.1771L312.5798 144.8351C312.5798 145.1191 312.8638 145.3471 313.0918 145.3471L320.8878 145.3471C321.2298 145.3471 321.5148 145.1191 321.5148 144.8351L321.5148 124.1771C321.5148 123.8351 321.2298 123.5511 320.8878 123.5511zM454.6805 123.0962L448.5345 123.0962C447.8525 123.0962 447.3385 123.6082 447.3385 124.2342L447.3385 135.7862 456.0465 135.7862 456.0465 124.2342C456.0465 123.5512 455.4775 123.0962 454.6805 123.0962zM233.3067 123.4938L225.7947 123.4938 225.7947 135.5018 233.3067 135.5018C233.5907 135.5018 233.8187 135.2178 233.8187 134.9898L233.8187 124.0638C233.8187 123.7788 233.5907 123.4938 233.3067 123.4938zM411.5443 123.4943L403.3493 123.4943 403.3493 133.7383 411.5443 133.7383C411.7713 133.7383 412.0563 133.4533 412.0563 133.2253L412.0563 124.0633C412.0563 123.7783 411.7713 123.4943 411.5443 123.4943zM276.785 123.4943L268.59 123.4943 268.59 133.7383 276.785 133.7383C277.012 133.7383 277.297 133.4533 277.297 133.2253L277.297 124.0633C277.297 123.7783 277.012 123.4943 276.785 123.4943zM443.5265 57.6229L443.5265 65.9319 434.8185 65.9319 434.8185 96.0369 424.9175 96.0369 424.9175 65.9319 416.2105 65.9319 416.2105 57.6229 443.5265 57.6229zM481.6552 57.6229L481.6552 65.8749 466.4032 65.8749 466.4032 72.5899 479.6062 72.5899 479.6062 80.7849 466.4032 80.7849 466.4032 87.7279 481.6552 87.7279 481.6552 96.0369 456.5582 96.0369 456.5582 57.6229 481.6552 57.6229zM404.5439 57.6229L404.5439 65.8749 389.2929 65.8749 389.2929 72.5899 402.4949 72.5899 402.4949 80.7849 389.2929 80.7849 389.2929 87.7279 404.5439 87.7279 404.5439 96.0369 379.4479 96.0369 379.4479 57.6229 404.5439 57.6229zM284.4108 57.6229L284.4108 65.9319 275.7038 65.9319 275.7038 96.0369 265.8018 96.0369 265.8018 65.9319 257.0948 65.9319 257.0948 57.6229 284.4108 57.6229zM239.9081 57.6228C242.5831 57.6228 244.4041 59.4438 244.4041 62.1188L244.4041 96.0368 234.5021 96.0368 234.5021 86.4758 225.7941 86.4758 225.7941 96.0368 215.8931 96.0368 215.8931 62.1188C215.8931 59.4438 217.7141 57.6228 220.3891 57.6228L239.9081 57.6228zM353.099 57.6229L353.099 87.7279 365.334 87.7279 365.334 96.0369 343.254 96.0369 343.254 57.6229 353.099 57.6229zM307.3453 57.6224L307.3453 72.3054 316.7343 72.3054 316.7343 57.6224 326.6373 57.6224 326.6373 96.0364 316.7343 96.0364 316.7343 80.7844 307.3453 80.7844 307.3453 96.0364 297.4433 96.0364 297.4433 57.6224 307.3453 57.6224zM233.1361 65.4768L226.9891 65.4768C226.3071 65.4768 225.7941 65.9888 225.7941 66.6148L225.7941 78.1668 234.5021 78.1668 234.5021 66.6148C234.5021 65.9318 233.9321 65.4768 233.1361 65.4768zM240.2497.0027L240.2497 8.2547 225.7377 8.2547 225.7377 16.9617 238.2577 16.9617 238.2577 25.1567 225.7377 25.1567 225.7377 38.4157 215.8927 38.4157 215.8927.0027 240.2497.0027zM264.6064.0031L272.3454 17.9291 279.4594.0031 289.9304.0031 289.9304 38.4161 280.5974 38.4161 280.5974 16.2791 274.1104 31.5301 270.2404 31.5301 263.6954 16.6771 263.6954 38.4161 254.5914 38.4161 254.5914.0031 264.6064.0031zM331.644.0027L331.644 8.2547 316.393 8.2547 316.393 14.9697 329.595 14.9697 329.595 23.1647 316.393 23.1647 316.393 30.1077 331.644 30.1077 331.644 38.4157 306.548 38.4157 306.548.0027 331.644.0027zM72.974 81.7848L85.851 104.0898 57.234 153.6558 5.68434189e-14 153.6558 28.62 104.0838 54.376 104.0838 41.47 126.4018 38.632 131.3508 44.357 131.3508 72.974 81.7848zM148.8063 104.0838L177.4233 153.6498 120.1823 153.6498 107.3053 131.3458 133.0853 131.3628 138.7903 131.3458 135.9293 126.3878 78.6943 126.3878 91.5723 104.0838 148.8063 104.0838zM88.7128 2.84217094e-14L117.3338 49.572 104.4558 71.876 91.5808 49.541 88.7138 44.609 85.8508 49.566 114.4688 99.133 88.7128 99.132 60.0958 49.566 88.7128 2.84217094e-14z" transform="translate(.217 .172)"/>
  </g>
</svg>
