<svg xmlns="http://www.w3.org/2000/svg" viewBox="0 0 414 313">
  <title>First Means Everything</title>
  <g fill="currentColor">
    <polyline points=".19 .551 26.14 .551 26.14 9.35 10.68 9.35 10.68 18.631 24.02 18.631 24.02 27.361 10.68 27.361 10.68 41.49 .19 41.49 .19 .551"/>
    <polygon points="41.43 41.491 51.92 41.491 51.92 .551 41.43 .551"/>
    <path d="M87.22 9.95C87.22 9.65 86.92 9.35 86.67 9.35L77.94 9.35 77.94 20.26 86.67 20.26C86.92 20.26 87.22 19.96 87.22 19.72L87.22 9.95zM93.1.551C95.59.551 97.71 2.55 97.71 5.16L97.71 23.9C97.71 26.39 95.59 28.51 93.1 28.51L92.8 28.51 97.83 41.49 87.52 41.49 82.43 28.51 77.94 28.51 77.94 41.49 67.39 41.49 67.39.551 93.1.551 93.1.551zM113.33 32.64L128.67 32.64C129.09 32.64 129.34 32.39 129.34 32.09L129.34 26.15C129.34 25.84 129.09 25.6 128.67 25.6L118.12 25.6C115.27 25.6 113.33 23.66 113.33 20.81L113.33 5.341C113.33 2.49 115.27.551 118.12.551L139.28.551 139.28 9.35 124.48 9.35C124.12 9.35 123.88 9.65 123.88 10.01L123.88 16.02C123.88 16.26 124.12 16.56 124.48 16.56L135.04 16.56C137.89 16.56 139.83 18.51 139.83 21.361L139.83 36.7C139.83 39.551 137.89 41.49 135.04 41.49L113.33 41.49 113.33 32.64"/>
    <polyline points="183.37 .551 183.37 9.41 174.09 9.41 174.09 41.49 163.54 41.49 163.54 9.41 154.26 9.41 154.26 .551 183.37 .551"/>
    <polyline points="207.51 18.32 207.51 41.49 197.8 41.49 197.8 .551 208.48 .551 216.72 19.66 224.31 .551 235.46 .551 235.46 41.49 225.52 41.49 225.52 17.9 218.6 34.151 214.48 34.151 207.51 18.32"/>
    <polyline points="251.56 .551 278.3 .551 278.3 9.35 262.05 9.35 262.05 16.5 276.12 16.5 276.12 25.24 262.05 25.24 262.05 32.64 278.3 32.64 278.3 41.49 251.56 41.49 251.56 .551"/>
    <path d="M313.18,22.45 L313.18,10.14 C313.18,9.41 312.57,8.921 311.72,8.921 L305.17,8.921 C304.44,8.921 303.9,9.47 303.9,10.14 L303.9,22.45 L313.18,22.45 Z M323.73,41.49 L313.18,41.49 L313.18,31.301 L303.9,31.301 L303.9,41.49 L293.34,41.49 L293.34,5.341 C293.34,2.49 295.29,0.551 298.14,0.551 L318.94,0.551 C321.79,0.551 323.73,2.49 323.73,5.341 L323.73,41.49 L323.73,41.49 Z"/>
    <polyline points="349.69 18.99 349.69 41.49 339.99 41.49 339.99 .551 349.69 .551 361.94 23.11 361.94 .551 371.64 .551 371.64 41.49 361.64 41.49 349.69 18.99"/>
    <path d="M386.99,32.64 L402.33,32.64 C402.75,32.64 403,32.39 403,32.09 L403,26.15 C403,25.84 402.75,25.6 402.33,25.6 L391.78,25.6 C388.93,25.6 386.99,23.66 386.99,20.81 L386.99,5.341 C386.99,2.49 388.93,0.551 391.78,0.551 L412.94,0.551 L412.94,9.35 L398.14,9.35 C397.78,9.35 397.54,9.65 397.54,10.01 L397.54,16.02 C397.54,16.26 397.78,16.56 398.14,16.56 L408.7,16.56 C411.55,16.56 413.49,18.51 413.49,21.35 L413.49,36.7 C413.49,39.551 411.55,41.49 408.7,41.49 L386.99,41.49 L386.99,32.64"/>
    <polyline points=".19 271.921 26.93 271.921 26.93 280.711 10.68 280.711 10.68 287.87 24.75 287.87 24.75 296.6 10.68 296.6 10.68 304 26.93 304 26.93 312.85 .19 312.85 .19 271.921"/>
    <polyline points="73.45 271.921 61.26 312.85 51.07 312.85 39.18 271.921 50.46 271.921 56.16 297.93 63.02 271.921 73.45 271.921"/>
    <polyline points="85.7 271.921 112.44 271.921 112.44 280.711 96.19 280.711 96.19 287.87 110.26 287.87 110.26 296.6 96.19 296.6 96.19 304 112.44 304 112.44 312.85 85.7 312.85 85.7 271.921"/>
    <path d="M147.56 281.321C147.56 281.01 147.25 280.711 147.01 280.711L138.28 280.711 138.28 291.631 147.01 291.631C147.25 291.631 147.56 291.32 147.56 291.08L147.56 281.321zM153.44 271.921C155.93 271.921 158.05 273.92 158.05 276.53L158.05 295.27C158.05 297.75 155.93 299.881 153.44 299.881L153.14 299.881 158.17 312.85 147.86 312.85 142.77 299.881 138.28 299.881 138.28 312.85 127.73 312.85 127.73 271.921 153.44 271.921 153.44 271.921zM183.52 312.85L183.52 300.85 178.06 300.85C175.58 300.85 173.45 298.66 173.45 295.99L173.45 271.921 184 271.921 184 290.78C184 291.08 184.37 291.39 184.67 291.39L193.1 291.39C193.47 291.39 193.53 291.08 193.53 290.78L193.53 271.921 204.08 271.921 204.08 295.99C204.08 298.66 201.96 300.85 199.47 300.85L194.07 300.85 194.07 312.85 183.52 312.85"/>
    <polyline points="247.08 271.921 247.08 280.77 237.8 280.77 237.8 312.85 227.25 312.85 227.25 280.77 217.97 280.77 217.97 271.921 247.08 271.921"/>
    <polyline points="292.08 312.85 281.52 312.85 281.52 296.6 271.52 296.6 271.52 312.85 260.96 312.85 260.96 271.921 271.52 271.921 271.52 287.56 281.52 287.56 281.52 271.921 292.08 271.921 292.08 312.85"/>
    <polygon points="307.48 312.85 317.97 312.85 317.97 271.921 307.48 271.921"/>
    <polyline points="342.96 290.35 342.96 312.85 333.25 312.85 333.25 271.921 342.96 271.921 355.21 294.481 355.21 271.921 364.91 271.921 364.91 312.85 354.9 312.85 342.96 290.35"/>
    <path d="M394.93,287.75 L413.49,287.75 L413.49,296.42 L410.09,296.42 L410.09,308.18 C410.09,310.85 408.03,312.85 405.42,312.85 L384.92,312.85 C382.32,312.85 380.19,310.85 380.19,308.18 L380.19,276.53 C380.19,274.04 382.32,271.921 384.92,271.921 L410.27,271.921 L410.27,280.711 L391.29,280.711 C390.99,280.711 390.68,281.01 390.68,281.381 L390.68,303.33 C390.68,303.7 390.99,303.94 391.29,303.94 L399.78,303.94 C400.21,303.94 400.45,303.7 400.45,303.33 L400.45,296.42 L394.93,296.42 L394.93,287.75"/>
    <g transform="translate(0 79)">
      <path d="M111.69,58.52 L0.03,58.52 L0.03,96.89 L97.72,96.89 L111.69,58.52"/>
      <path d="M153.05,0.96 L111.16,116.08 L70.32,116.08 L56.36,154.45 L138.03,154.45 L193.89,0.96 L153.05,0.96"/>
      <polyline points="214.31 .96 158.45 154.45 199.28 154.45 255.14 .96 214.31 .96"/>
      <path d="M132.64.96L19.22.96C8.62.96.03 9.55.03 20.151L.03 39.33 118.67 39.33 132.64.96M315.8 58.52L301.83 96.89 375.12 96.89 413.49 96.89 413.49 58.52 375.12 58.52 315.8 58.52M294.85 116.08L294.85 116.08 280.88 154.45 394.3 154.45C404.9 154.45 413.49 145.861 413.49 135.26L413.49 116.08 294.85 116.08M.03 116.08L.03 154.45 35.94 154.45 49.91 116.08.03 116.08M377.58.96L363.61 39.33 413.49 39.33 413.49.96 377.58.96"/>
      <path d="M275.56,0.96 L219.7,154.45 L260.54,154.45 L302.43,39.33 L343.19,39.33 L357.16,0.96 L275.56,0.96"/>
    </g>
  </g>
</svg>
