<?xml version="1.0" standalone="no"?>
<!DOCTYPE svg PUBLIC "-//W3C//DTD SVG 20010904//EN"
 "http://www.w3.org/TR/2001/REC-SVG-20010904/DTD/svg10.dtd">
<svg version="1.0" xmlns="http://www.w3.org/2000/svg"
 width="260.000000pt" height="260.000000pt" viewBox="0 0 260.000000 260.000000"
 preserveAspectRatio="xMidYMid meet">
<metadata>
Created by potrace 1.14, written by Peter Selinger 2001-2017
</metadata>
<g transform="translate(0.000000,260.000000) scale(0.100000,-0.100000)"
fill="#000000" stroke="none">
<path d="M454 1618 c-29 -14 -44 -49 -44 -104 l0 -44 256 2 256 3 28 78 29 77
-252 -1 c-152 0 -261 -4 -273 -11z"/>
<path d="M1057 1593 c-8 -21 -49 -134 -92 -250 l-78 -213 -88 0 -88 0 -20 -55
c-11 -30 -23 -66 -27 -80 l-6 -25 172 2 172 3 114 310 c63 171 117 318 120
328 5 15 -3 17 -79 17 l-85 0 -15 -37z"/>
<path d="M1217 1308 c-65 -178 -117 -326 -117 -330 0 -5 37 -8 83 -8 l82 0
118 323 c65 177 117 325 117 330 0 4 -37 7 -83 7 l-82 0 -118 -322z"/>
<path d="M1591 1608 c-32 -84 -231 -631 -231 -634 0 -2 38 -4 84 -4 82 0 84 1
95 28 16 40 171 465 171 469 0 1 40 3 89 3 l89 0 26 71 c14 38 26 74 26 80 0
5 -70 9 -170 9 -168 0 -171 0 -179 -22z"/>
<path d="M2031 1608 c-4 -13 -18 -49 -29 -80 l-22 -58 105 0 105 0 0 80 0 80
-75 0 c-69 0 -76 -2 -84 -22z"/>
<path d="M410 1300 l0 -80 209 0 209 0 26 71 c14 38 26 74 26 80 0 5 -95 9
-235 9 l-235 0 0 -80z"/>
<path d="M1754 1333 c-9 -27 -23 -63 -30 -80 l-13 -33 240 0 239 0 0 80 0 80
-209 0 -209 0 -18 -47z"/>
<path d="M410 1050 l0 -81 76 3 77 3 28 78 28 77 -104 0 -105 0 0 -80z"/>
<path d="M1671 1108 c-4 -13 -18 -49 -30 -81 l-21 -58 261 3 261 3 24 28 c18
22 24 40 24 78 l0 49 -255 0 -255 0 -9 -22z"/>
</g>
</svg>
